<svg version="1.1" id="Layer_1" xmlns="http://www.w3.org/2000/svg" xmlns:xlink="http://www.w3.org/1999/xlink" x="0px" y="0px"
	 width="100%" viewBox="0 0 460 240" enable-background="new 0 0 460 240" xml:space="preserve">
<path fill="#771634" opacity="1.000000" stroke="none" 
	d="
M87.000000,241.000000 
	C58.344189,241.000000 29.688381,241.000000 1.016285,241.000000 
	C1.016285,161.041153 1.016285,81.082314 1.016285,1.061733 
	C154.234085,1.061733 307.468201,1.061733 460.851166,1.061733 
	C460.851166,80.999817 460.851166,160.999863 460.851166,241.000000 
	C418.238281,241.000000 375.587799,241.000000 332.469849,240.638275 
	C330.096954,239.158859 328.319122,237.474442 326.266144,237.012283 
	C308.298798,232.967636 290.277557,229.163162 272.283081,225.237946 
	C266.258026,223.923645 264.571838,221.803146 264.586487,215.589462 
	C264.591522,213.456741 264.961029,211.324905 265.622162,209.179901 
	C277.052399,209.103439 288.024506,209.039749 299.458923,209.058563 
	C305.892517,209.140747 311.865753,209.048233 317.834137,209.178711 
	C320.848114,209.244598 322.220764,208.189270 322.761261,205.061340 
	C325.697052,188.071747 328.781952,171.106796 331.984802,154.165359 
	C332.669220,150.545105 332.427948,148.437912 327.985443,148.293198 
	C326.354462,148.240082 324.774902,146.607437 323.102692,145.204803 
	C322.944702,143.752045 322.855957,142.789734 322.862885,141.589111 
	C322.677368,139.597977 322.396179,137.845184 322.270996,135.961609 
	C322.487946,135.709198 322.619781,135.570938 322.595886,135.469223 
	C322.536896,135.217957 322.406525,134.983429 322.299194,134.454330 
	C322.240112,133.786499 322.186676,133.406509 322.282349,132.789215 
	C322.168304,131.719040 321.905121,130.886169 321.624573,129.727692 
	C321.552155,128.971481 321.497101,128.540863 321.549622,127.776657 
	C321.281464,126.167534 320.905731,124.891998 320.544891,123.407394 
	C320.566803,122.918900 320.566345,122.639481 320.704102,122.257782 
	C320.998901,121.962631 321.086731,121.745049 321.407013,121.307922 
	C326.776794,115.744476 327.844055,108.849510 329.176453,101.704697 
	C331.293091,98.403870 334.462372,95.528000 334.841644,92.322060 
	C335.368622,87.867760 334.044037,83.109116 332.982147,78.605713 
	C332.675751,77.306328 330.433289,75.397789 329.273438,75.526459 
	C313.814484,77.241302 315.529053,72.729530 317.443756,89.371597 
	C317.500641,89.865990 317.657166,90.364349 317.624481,90.851265 
	C317.216522,96.924568 320.784882,100.122070 325.909241,102.668747 
	C324.327759,108.345612 322.667999,113.617645 320.747345,118.692345 
	C320.177246,118.193260 319.868011,117.891518 319.558868,117.362503 
	C319.562592,116.829521 319.520447,116.530266 319.546814,115.919571 
	C319.283752,113.938263 318.906250,112.274841 318.455017,110.409134 
	C318.381287,110.206833 318.140930,109.849548 317.945068,109.598236 
	C317.141876,109.365280 316.534515,109.383644 315.600769,109.394516 
	C314.845673,109.320183 314.416992,109.253334 313.893616,108.843445 
	C310.651062,105.249634 307.985870,101.196487 304.238495,98.942528 
	C299.057465,95.826309 293.981079,99.947227 294.564209,105.957245 
	C294.689758,107.251450 294.135834,108.611580 293.585266,109.793732 
	C291.469940,108.845474 289.664276,108.044830 287.858612,107.244194 
	C287.620361,107.623756 287.382080,108.003311 287.143829,108.382874 
	C288.809418,109.606133 290.474976,110.829391 291.928009,112.320877 
	C289.270355,113.810593 286.825256,115.032089 284.036255,116.050911 
	C281.971008,113.424446 280.249603,111.000664 278.429199,108.437462 
	C275.180084,110.039482 275.013123,112.957512 278.560516,116.062698 
	C279.647644,117.014313 280.242889,118.527855 280.794617,119.800949 
	C280.353210,119.866753 280.180542,119.915688 279.738464,119.878021 
	C279.290710,119.730209 279.112305,119.669006 278.825500,119.536385 
	C278.442535,119.397751 278.214539,119.477051 277.619202,119.820526 
	C270.801270,120.943214 264.397278,121.948242 257.603455,122.933273 
	C255.513977,123.291199 253.814392,123.669136 251.796417,124.190628 
	C249.662704,127.547661 247.847397,130.761139 245.625854,133.891281 
	C243.560684,133.725876 241.901749,133.643799 240.189896,133.200562 
	C238.921356,131.919968 237.687668,130.190033 236.493088,130.216614 
	C230.178986,130.357071 226.356155,126.396950 221.993179,122.729088 
	C210.701096,113.236092 203.239273,102.239677 203.453476,86.671585 
	C203.519012,81.907440 200.664932,77.103127 198.826660,72.084473 
	C194.642563,70.905022 190.779709,69.958305 186.922348,68.630539 
	C187.666672,67.501854 188.565964,66.001808 189.120117,66.120003 
	C196.841034,67.766800 199.105530,62.904835 200.716965,56.660751 
	C206.240829,51.022507 206.570908,47.200222 202.396729,39.574814 
	C202.395004,39.602776 202.429031,39.563995 202.561829,39.598274 
	C202.694626,39.632557 202.854645,39.495327 202.854645,39.495327 
	C202.854645,39.495327 202.511948,39.427197 202.251892,39.601387 
	C197.332199,36.720940 192.281143,35.774651 186.450134,36.959091 
	C184.286819,36.033710 182.202957,35.439766 180.784698,34.126820 
	C176.371048,30.040949 172.613388,30.143000 169.058304,34.942722 
	C167.877640,36.536743 166.798233,38.261139 165.996735,40.069614 
	C164.059906,44.439941 160.868042,46.448963 156.027374,45.783081 
	C155.957260,45.682331 155.587265,45.732643 155.587265,45.732643 
	C155.587265,45.732643 155.914368,46.071796 156.015854,46.412552 
	C159.094528,47.929726 162.071701,49.106136 165.164505,50.473869 
	C165.516541,51.057163 165.752975,51.449135 165.711761,52.140888 
	C165.328598,54.663403 165.223083,56.886135 165.108688,59.295910 
	C170.806396,59.912109 175.412964,59.284058 179.073853,55.387917 
	C182.226624,59.902931 181.619965,63.464043 176.662872,68.396072 
	C173.182434,68.605736 170.113495,68.888000 166.679398,69.212654 
	C165.231110,71.067863 163.421249,72.807999 163.231049,74.710106 
	C162.927170,77.748795 163.699280,80.895081 163.931992,84.398178 
	C161.686920,93.694862 159.526352,102.589241 157.157379,112.341576 
	C163.537994,113.711464 170.835190,115.278137 178.418564,117.020729 
	C186.129837,122.218094 193.554932,127.239540 200.970108,132.471008 
	C200.947861,132.961487 200.949341,133.241852 200.538300,133.574951 
	C198.341232,134.158981 196.570511,134.690216 194.799805,135.221451 
	C195.892151,136.732224 196.975815,138.249405 198.082703,139.749451 
	C198.372864,140.142670 198.735046,140.482727 199.048279,141.201431 
	C199.021957,142.028046 199.011520,142.500427 198.701569,143.154633 
	C194.597672,144.939499 190.793289,146.542572 186.788055,147.797455 
	C181.747589,139.865387 178.678436,131.819565 180.830505,122.440613 
	C171.396713,119.935738 162.623703,117.496773 153.773453,115.380836 
	C152.523346,115.081970 150.588684,116.006752 149.495163,116.964050 
	C143.325562,122.365036 140.691345,129.529358 139.086517,137.410995 
	C138.189529,141.816193 136.581619,146.365906 134.141205,150.096298 
	C130.895844,155.057129 126.678482,159.425140 122.593369,163.780167 
	C119.212608,167.384323 115.418159,170.600418 111.806999,173.988449 
	C111.904427,174.552841 112.001854,175.117233 112.099281,175.681641 
	C114.968674,176.498154 117.794685,177.623276 120.721031,178.034576 
	C123.106468,178.369843 125.611893,177.851288 128.210190,178.023102 
	C133.527023,183.544815 138.703064,188.744736 146.801682,188.420578 
	C129.122269,200.549637 111.586044,212.379684 93.785767,223.963120 
	C91.930016,223.785431 90.335175,223.954147 88.747261,223.903931 
	C84.526512,223.770477 83.817459,225.737656 84.831192,229.484711 
	C85.848122,233.243607 86.300308,237.155289 87.000000,241.000000 
M245.238083,84.049110 
	C242.947876,84.625824 234.964767,93.570732 234.996689,95.725151 
	C235.007050,96.425880 235.484070,97.410530 236.057648,97.768204 
	C243.968811,102.701546 250.756744,111.484634 261.819031,105.623108 
	C262.887421,97.930206 260.882446,91.957611 253.128006,88.781563 
	C250.553543,87.727135 248.306412,85.873466 245.238083,84.049110 
z"/>
<path fill="#F7F2F3" opacity="1.000000" stroke="none" 
	d="
M298.996582,208.976059 
	C288.024506,209.039749 277.052399,209.103439 265.175446,209.133301 
	C262.773834,209.153122 261.277069,209.206787 259.327209,209.218628 
	C249.304276,209.176804 239.734482,209.176804 230.250214,209.176804 
	C228.854095,222.289490 229.978287,223.706863 242.032211,226.230972 
	C258.910889,229.765411 275.772614,233.388290 292.584564,237.223450 
	C294.573395,237.677139 296.203552,239.702957 298.000000,241.000000 
	C293.975464,241.000000 289.950897,241.000000 285.336548,240.637482 
	C268.241608,236.586639 251.728897,232.931824 235.235123,229.193497 
	C228.693069,227.710724 225.734787,223.951035 225.491791,217.255371 
	C225.365753,213.782227 225.654175,210.209000 224.934265,206.857346 
	C221.973862,193.074753 218.698364,179.359833 215.710083,165.334045 
	C217.548370,164.284012 219.215332,163.519943 221.350449,162.822144 
	C224.864288,162.888397 227.909973,162.888397 231.404236,162.888397 
	C230.859879,159.146271 230.423065,156.143433 229.982422,153.114258 
	C228.008621,153.024536 226.546570,152.958084 225.091675,152.515442 
	C225.432587,150.933029 225.766342,149.726822 226.552307,148.512970 
	C231.263031,148.472931 235.521545,148.440521 240.025009,148.497986 
	C240.598343,148.481796 240.926743,148.375702 241.706848,148.299164 
	C252.104950,148.263077 262.051361,148.197403 272.378967,148.232819 
	C273.805939,148.265411 274.851746,148.196915 276.238037,148.241241 
	C279.036469,148.375977 281.494354,148.397919 284.134308,148.560120 
	C284.655243,148.795273 284.926697,148.699341 285.571655,148.429718 
	C289.995422,148.437607 293.978241,148.428360 298.115906,148.560623 
	C298.270721,148.702118 298.687256,148.728394 298.687256,148.728394 
	C298.687256,148.728394 299.020874,148.477707 299.451294,148.489380 
	C301.587738,148.674225 303.293732,148.847397 304.973450,149.415848 
	C304.958618,150.866379 304.970123,151.921616 304.793732,153.344559 
	C304.390015,156.621841 304.174225,159.531433 303.550476,162.571228 
	C302.049072,162.440109 300.955627,162.178772 299.851379,161.470306 
	C299.973114,158.426956 300.105682,155.830719 300.292572,152.170898 
	C296.760132,154.104813 294.026245,155.576614 291.354431,157.153610 
	C291.245270,157.218018 291.720520,158.272537 291.567139,159.070984 
	C291.115326,160.577988 291.487762,162.200958 290.849762,163.130234 
	C286.136108,169.996048 288.861176,175.647690 293.012024,181.174026 
	C290.991455,181.387527 289.405334,181.516739 287.544769,181.668320 
	C287.372803,184.934448 287.221222,187.813293 287.042419,191.208984 
	C289.714294,191.208984 291.906067,191.560043 293.899628,191.082932 
	C295.182739,190.775848 296.174652,189.251907 297.706329,188.212311 
	C300.632874,187.149155 301.742493,187.888046 301.174744,191.104599 
	C301.108582,193.055435 301.079987,194.556747 300.973755,196.453339 
	C300.798889,198.186386 300.701660,199.524170 300.417114,201.052856 
	C300.283051,201.578140 300.336334,201.912537 300.374878,202.548157 
	C300.383667,203.449951 300.407227,204.050507 300.346344,205.026794 
	C299.840118,206.593689 299.418335,207.784866 298.996582,208.976059 
M277.163116,195.861221 
	C273.809296,197.822281 270.449646,199.780350 272.442749,204.657516 
	C274.448792,204.657516 276.232208,204.657516 278.854340,204.812088 
	C285.436157,203.813812 280.645752,199.030411 282.490814,195.998520 
	C280.453857,195.998520 279.179596,195.998520 277.163116,195.861221 
M234.105453,184.041061 
	C231.949188,178.407669 227.542343,182.454300 223.517868,180.820251 
	C224.245071,183.232590 224.656860,184.598648 225.055191,186.766327 
	C226.005234,193.475388 230.765274,190.769653 234.969376,190.919708 
	C234.630249,188.628845 234.348221,186.723740 234.105453,184.041061 
M276.303162,181.351227 
	C271.341553,181.744064 271.019043,182.513870 272.525299,190.991882 
	C274.017731,190.991882 275.609131,190.991882 278.037231,191.145264 
	C279.470551,191.145264 280.903870,191.145264 282.639832,191.145264 
	C282.639832,187.670776 282.639832,184.758652 282.639832,181.523376 
	C280.685364,181.523376 278.905151,181.523376 276.303162,181.351227 
M255.849518,202.850983 
	C257.648834,207.065552 261.221222,204.140060 263.904419,204.765686 
	C266.885773,205.460846 267.672577,203.711472 267.132263,200.155899 
	C266.897247,195.364227 263.699707,194.382004 255.398224,196.710999 
	C255.594406,198.445099 255.795944,200.226486 255.849518,202.850983 
M276.208374,167.224380 
	C271.382507,167.632904 270.742096,169.315323 272.739441,176.775192 
	C274.134338,176.775192 275.599152,176.775192 277.909149,176.918259 
	C279.517548,176.918259 281.125946,176.918259 283.189362,176.918259 
	C283.189362,173.491470 283.189362,170.515015 283.189362,167.403397 
	C280.943054,167.403397 278.987488,167.403397 276.208374,167.224380 
M277.725708,162.919022 
	C279.657990,162.919022 281.590271,162.919022 283.834564,162.919022 
	C283.992554,159.380310 284.122528,156.468948 284.268860,153.191772 
	C281.267822,153.191772 278.659882,153.191772 275.199554,153.044464 
	C268.044678,154.296463 273.795532,159.317352 271.364319,162.796112 
	C273.927002,162.796112 275.377167,162.796112 277.725708,162.919022 
M260.479553,162.907578 
	C261.803253,162.893829 263.130249,162.934921 264.450073,162.855942 
	C268.241302,162.629150 267.047333,159.665756 267.121216,157.608505 
	C267.192841,155.613556 267.773956,152.990067 264.316498,152.998016 
	C260.412598,153.006989 256.508606,153.000076 252.642700,153.000076 
	C252.341278,162.870422 252.341278,162.870422 260.479553,162.907578 
M266.956024,183.004395 
	C262.976746,182.242783 258.997498,181.481171 254.178299,180.558807 
	C254.510757,184.853439 254.734894,187.748871 254.969376,190.777771 
	C259.176727,190.777771 263.056976,190.777771 267.068726,190.777771 
	C267.068726,188.209045 267.068726,186.055176 266.956024,183.004395 
M265.297394,173.875092 
	C265.779388,171.848038 266.261383,169.820969 266.787903,167.606689 
	C262.042114,167.606689 257.841309,167.606689 252.539932,167.606689 
	C253.523193,171.075226 253.887985,176.035233 255.216278,176.308289 
	C258.294830,176.941162 262.646118,179.339600 265.297394,173.875092 
M247.828186,155.811203 
	C246.567352,153.323746 240.396057,151.259094 237.847870,153.381470 
	C236.219040,154.738159 234.970596,158.853821 235.852783,160.497467 
	C238.659988,165.727707 243.584747,161.830643 247.907883,162.850571 
	C247.907883,160.295319 247.907883,158.499588 247.828186,155.811203 
M244.316315,167.212662 
	C241.929733,167.341339 239.543152,167.470016 237.242737,167.594055 
	C236.668091,176.678864 237.212585,177.264282 245.130035,176.954742 
	C247.156921,176.875504 249.532639,177.093201 249.053421,174.032898 
	C248.636673,171.371567 250.705536,167.079437 244.316315,167.212662 
M231.719452,170.384155 
	C229.768860,163.073486 224.504242,169.175934 221.039520,166.716385 
	C221.639816,177.557404 223.021179,178.524521 232.396896,175.535950 
	C232.189163,174.115906 231.977020,172.665588 231.719452,170.384155 
M249.846344,183.291534 
	C246.965622,179.427917 243.272736,182.470261 239.977554,182.130920 
	C239.743179,184.611420 238.640869,188.874298 239.427795,189.257477 
	C242.494690,190.750916 246.160339,191.014771 250.247864,191.870956 
	C250.089874,188.398041 249.993195,186.272476 249.846344,183.291534 
M243.762634,204.969086 
	C246.189133,204.969086 248.615616,204.969086 251.477234,204.969086 
	C251.149124,201.493576 250.893417,198.784988 250.656281,196.273071 
	C246.777039,196.273071 243.582825,196.273071 239.171280,196.273071 
	C240.612762,199.664795 241.734192,202.303452 243.762634,204.969086 
M288.639648,195.828857 
	C287.759277,198.588440 286.878906,201.348007 285.844269,204.591187 
	C289.901428,204.591187 292.624725,204.591187 295.744751,204.591187 
	C295.965454,201.666229 296.168488,198.975784 296.407440,195.808884 
	C293.838867,195.808884 291.725006,195.808884 288.639648,195.828857 
M227.642838,197.993958 
	C228.161667,200.195541 228.680511,202.397141 229.162598,204.442841 
	C231.916901,204.442841 234.248871,204.442841 236.622910,204.442841 
	C235.713654,195.186554 233.248520,193.349945 227.642838,197.993958 
z"/>
<path fill="#781734" opacity="1.000000" stroke="none" 
	d="
M196.000000,241.000000 
	C161.645767,241.000000 127.291542,241.000000 92.472076,240.613586 
	C93.016441,236.527618 94.026054,232.828064 95.393433,229.061554 
	C98.183823,227.930115 100.688774,227.004257 103.037460,225.778900 
	C119.661583,217.105652 136.253662,208.370956 153.169479,199.549255 
	C157.693451,196.135468 161.903900,192.828308 166.424683,189.690399 
	C169.489685,193.967590 172.512207,197.924011 174.940216,202.216690 
	C179.272263,209.875641 183.205383,217.759140 187.382294,225.507263 
	C190.186234,230.708527 193.122787,235.838257 196.000000,241.000000 
z"/>
<path fill="#791937" opacity="1.000000" stroke="none" 
	d="
M215.538757,165.620026 
	C218.698364,179.359833 221.973862,193.074753 224.934265,206.857346 
	C225.654175,210.209000 225.365753,213.782227 225.491791,217.255371 
	C225.734787,223.951035 228.693069,227.710724 235.235123,229.193497 
	C251.728897,232.931824 268.241608,236.586639 284.873352,240.637482 
	C258.645782,241.000000 232.291550,241.000000 205.373688,240.654449 
	C203.725586,237.875717 202.635803,235.444901 201.557495,233.008987 
	C195.094055,218.407806 188.633224,203.805466 182.582092,189.191162 
	C186.803329,188.882675 191.419174,189.971252 192.022934,183.539154 
	C192.200668,180.326691 192.277435,177.561600 192.669937,174.699493 
	C200.503372,171.608322 208.021072,168.614166 215.538757,165.620026 
z"/>
<path fill="#E9B076" opacity="1.000000" stroke="none" 
	d="
M182.171524,189.203522 
	C188.633224,203.805466 195.094055,218.407806 201.557495,233.008987 
	C202.635803,235.444901 203.725586,237.875717 204.905029,240.654449 
	C202.299988,241.000000 199.599976,241.000000 196.449982,241.000000 
	C193.122787,235.838257 190.186234,230.708527 187.382294,225.507263 
	C183.205383,217.759140 179.272263,209.875641 174.940216,202.216690 
	C172.512207,197.924011 169.489685,193.967590 166.340698,189.377686 
	C162.728317,184.598785 159.510254,180.301849 156.244202,175.695602 
	C156.189926,174.969223 156.183624,174.552155 156.533997,174.176300 
	C161.626892,176.966766 166.584534,177.840027 172.004150,176.512177 
	C173.471283,176.152710 175.204208,176.878067 176.861359,177.472626 
	C178.662247,181.627701 180.416885,185.415604 182.171524,189.203522 
z"/>
<path fill="#7C1F3B" opacity="1.000000" stroke="none" 
	d="
M298.468628,241.000000 
	C296.203552,239.702957 294.573395,237.677139 292.584564,237.223450 
	C275.772614,233.388290 258.910889,229.765411 242.032211,226.230972 
	C229.978287,223.706863 228.854095,222.289490 230.250214,209.176804 
	C239.734482,209.176804 249.304276,209.176804 259.394867,209.656372 
	C259.961182,211.628113 260.033600,213.120010 260.047943,214.612473 
	C260.142456,224.451736 262.733612,227.720612 272.198029,229.764084 
	C283.874420,232.285126 295.576080,234.691574 307.234222,237.293503 
	C311.867767,238.327621 316.414001,239.752838 321.000000,241.000000 
	C313.645752,241.000000 306.291504,241.000000 298.468628,241.000000 
z"/>
<path fill="#AFA8AA" opacity="1.000000" stroke="none" 
	d="
M321.458069,241.000000 
	C316.414001,239.752838 311.867767,238.327621 307.234222,237.293503 
	C295.576080,234.691574 283.874420,232.285126 272.198029,229.764084 
	C262.733612,227.720612 260.142456,224.451736 260.047943,214.612473 
	C260.033600,213.120010 259.961182,211.628113 259.847992,209.698196 
	C261.277069,209.206787 262.773834,209.153122 264.717285,209.146057 
	C264.961029,211.324905 264.591522,213.456741 264.586487,215.589462 
	C264.571838,221.803146 266.258026,223.923645 272.283081,225.237946 
	C290.277557,229.163162 308.298798,232.967636 326.266144,237.012283 
	C328.319122,237.474442 330.096954,239.158859 332.001190,240.638275 
	C328.638702,241.000000 325.277435,241.000000 321.458069,241.000000 
z"/>
<path fill="#B53841" opacity="1.000000" stroke="none" 
	d="
M95.035660,229.128510 
	C94.026054,232.828064 93.016441,236.527618 92.003418,240.613586 
	C90.611107,241.000000 89.222221,241.000000 87.416672,241.000000 
	C86.300308,237.155289 85.848122,233.243607 84.831192,229.484711 
	C83.817459,225.737656 84.526512,223.770477 88.747261,223.903931 
	C90.335175,223.954147 91.930016,223.785431 93.875473,224.307739 
	C94.498062,226.308792 94.766869,227.718658 95.035660,229.128510 
z"/>
<path fill="#FEFDFD" opacity="1.000000" stroke="none" 
	d="
M176.815125,177.105484 
	C175.204208,176.878067 173.471283,176.152710 172.004150,176.512177 
	C166.584534,177.840027 161.626892,176.966766 156.174500,173.998581 
	C145.613144,170.117142 136.853561,174.018250 128.064117,177.711334 
	C125.611893,177.851288 123.106468,178.369843 120.721031,178.034576 
	C117.794685,177.623276 114.968674,176.498154 112.099281,175.681641 
	C112.001854,175.117233 111.904427,174.552841 111.806999,173.988449 
	C115.418159,170.600418 119.212608,167.384323 122.593369,163.780167 
	C126.678482,159.425140 130.895844,155.057129 134.141205,150.096298 
	C136.581619,146.365906 138.189529,141.816193 139.086517,137.410995 
	C140.691345,129.529358 143.325562,122.365036 149.495163,116.964050 
	C150.588684,116.006752 152.523346,115.081970 153.773453,115.380836 
	C162.623703,117.496773 171.396713,119.935738 180.830505,122.440613 
	C178.678436,131.819565 181.747589,139.865387 186.597717,148.121948 
	C185.516220,150.550415 183.111954,152.782898 183.548126,153.983551 
	C186.116745,161.054443 189.346893,167.885010 192.354202,174.796524 
	C192.277435,177.561600 192.200668,180.326691 191.684509,183.471039 
	C186.435120,181.602051 181.625122,179.353775 176.815125,177.105484 
z"/>
<path fill="#ACA8A8" opacity="1.000000" stroke="none" 
	d="
M299.458923,209.058563 
	C299.418335,207.784866 299.840118,206.593689 300.704620,205.033264 
	C305.532288,203.624878 303.160400,199.846985 303.948944,197.367538 
	C303.986298,197.250076 302.062073,196.508820 301.051392,196.058060 
	C301.079987,194.556747 301.108582,193.055435 301.555359,191.235336 
	C303.110565,190.167313 305.075500,189.560440 305.233307,188.642822 
	C305.760254,185.578247 307.352600,183.976791 310.254089,183.877930 
	C310.143921,186.021774 309.786652,187.705109 310.013794,189.305542 
	C310.110382,189.986420 311.430084,190.493729 312.193970,191.079910 
	C312.958771,188.842758 314.030182,186.647034 314.340790,184.348511 
	C314.468964,183.400070 312.963348,182.230850 312.025787,180.837433 
	C309.201965,174.444855 306.553162,168.376877 304.295837,162.483429 
	C309.689117,162.838943 311.098236,160.015274 309.364655,152.976852 
	C307.937500,152.976852 306.459564,152.976852 304.981628,152.976852 
	C304.970123,151.921616 304.958618,150.866379 305.157410,149.250275 
	C305.852112,148.590302 306.336548,148.491196 307.171204,148.629684 
	C311.085144,148.900681 314.696808,149.289871 318.192413,148.818558 
	C319.960480,148.580170 321.518768,146.786011 323.171906,145.695282 
	C324.774902,146.607437 326.354462,148.240082 327.985443,148.293198 
	C332.427948,148.437912 332.669220,150.545105 331.984802,154.165359 
	C328.781952,171.106796 325.697052,188.071747 322.761261,205.061340 
	C322.220764,208.189270 320.848114,209.244598 317.834137,209.178711 
	C311.865753,209.048233 305.892517,209.140747 299.458923,209.058563 
M313.996674,162.011475 
	C318.678772,163.413925 320.071198,161.057114 319.119263,153.314850 
	C315.924866,152.172836 314.467529,153.468719 314.291748,156.701584 
	C314.210693,158.192047 313.978333,159.674301 313.996674,162.011475 
M315.554749,167.249924 
	C310.463684,167.709641 312.839600,172.010727 311.912537,174.572281 
	C311.714569,175.119217 312.712158,176.749634 313.094574,176.728271 
	C314.065277,176.674026 315.730408,176.082397 315.822876,175.500259 
	C316.243927,172.849380 316.218567,170.127579 315.554749,167.249924 
M321.139313,170.719101 
	C320.937317,172.704056 320.735321,174.689011 320.533325,176.673981 
	C321.278503,176.821091 322.023682,176.968201 322.768890,177.115311 
	C323.559509,173.997040 324.350128,170.878769 325.140778,167.760498 
	C324.556610,167.491394 323.972443,167.222275 323.388275,166.953171 
	C322.681763,167.952209 321.975281,168.951248 321.139313,170.719101 
M318.324066,186.949478 
	C318.324066,188.336121 318.324066,189.722748 318.324066,191.109390 
	C319.035248,191.186844 319.746429,191.264282 320.457611,191.341721 
	C321.078735,188.184402 321.699860,185.027069 322.321014,181.869736 
	C321.632446,181.634033 320.943909,181.398315 320.255341,181.162613 
	C319.654236,182.826752 319.053131,184.490875 318.324066,186.949478 
M307.997314,201.339493 
	C308.147400,202.481888 308.297455,203.624283 308.447510,204.766678 
	C309.044861,204.833954 309.642181,204.901230 310.239532,204.968506 
	C310.966949,202.109055 311.694397,199.249603 312.421844,196.390152 
	C311.735046,196.104477 311.048248,195.818802 310.361481,195.533142 
	C309.615265,197.194778 308.869080,198.856415 307.997314,201.339493 
z"/>
<path fill="#DD5548" opacity="1.000000" stroke="none" 
	d="
M192.669937,174.699493 
	C189.346893,167.885010 186.116745,161.054443 183.548126,153.983551 
	C183.111954,152.782898 185.516220,150.550415 186.798553,148.470123 
	C190.793289,146.542572 194.597672,144.939499 198.994476,143.044846 
	C199.898438,142.475891 200.209991,142.198517 200.862335,141.902710 
	C204.795624,140.633331 208.388138,139.382401 212.247162,138.355835 
	C215.660507,139.893433 218.729660,141.462738 221.976089,142.447739 
	C225.209732,143.428864 226.514755,145.279083 226.100098,148.520615 
	C225.766342,149.726822 225.432587,150.933029 224.908569,152.839081 
	C223.439636,156.611252 222.160980,159.683563 220.882324,162.755875 
	C219.215332,163.519943 217.548370,164.284012 215.710083,165.334045 
	C208.021072,168.614166 200.503372,171.608322 192.669937,174.699493 
M197.149628,167.386795 
	C198.423264,167.355301 200.208664,167.836761 200.862686,167.184250 
	C202.175064,165.874878 202.869537,163.946167 203.819046,162.273102 
	C201.999420,161.563919 199.911697,159.911301 198.414536,160.336792 
	C195.022949,161.300644 193.464981,163.711258 197.149628,167.386795 
M202.139587,146.543640 
	C201.216034,148.347794 200.292480,150.151932 199.368927,151.956070 
	C201.080688,152.580811 203.023300,154.012497 204.440369,153.607117 
	C205.906342,153.187759 206.862213,150.985199 208.041229,149.562668 
	C206.315582,148.465591 204.589935,147.368515 202.139587,146.543640 
M204.615921,158.684479 
	C206.781555,159.052277 208.947189,159.420090 211.112823,159.787903 
	C211.238953,159.092484 211.365082,158.397064 211.491196,157.701660 
	C204.975098,155.970032 198.337555,154.806396 191.656662,153.845474 
	C191.499161,154.506241 191.341660,155.166992 191.184158,155.827759 
	C195.395935,156.704132 199.607727,157.580505 204.615921,158.684479 
z"/>
<path fill="#E48A80" opacity="1.000000" stroke="none" 
	d="
M271.997772,148.131744 
	C262.051361,148.197403 252.104950,148.263077 241.583832,148.170868 
	C241.009125,148.013016 240.763779,147.756989 240.826965,147.469299 
	C240.922409,146.791565 240.954651,146.401535 241.001266,146.009003 
	C241.015625,146.006500 241.007721,145.978439 241.172089,145.885803 
	C241.538040,145.608368 241.621323,145.380341 241.753372,144.786865 
	C242.047211,143.998215 242.173996,143.531784 242.522797,142.858521 
	C243.440475,141.199448 244.136124,139.747192 244.992706,137.952271 
	C245.446426,136.397934 245.739258,135.186279 246.032074,133.974625 
	C247.847397,130.761139 249.662704,127.547661 252.076782,124.197525 
	C252.742630,124.951263 253.113251,125.960205 252.820389,126.710014 
	C251.910110,129.040649 251.559998,130.876205 255.263290,131.204956 
	C263.347229,132.780792 271.110016,128.866180 272.857269,122.221260 
	C268.042847,127.601021 262.298340,130.735306 254.814911,129.866638 
	C255.753632,127.400803 256.873474,125.177040 257.993317,122.953278 
	C264.397278,121.948242 270.801270,120.943214 277.848938,119.840820 
	C278.492645,119.743454 278.933868,119.607796 278.933868,119.607796 
	C279.112305,119.669006 279.290710,119.730209 279.735229,120.288010 
	C277.333466,129.900299 274.665619,139.016022 271.997772,148.131744 
z"/>
<path fill="#E8AF75" opacity="1.000000" stroke="none" 
	d="
M200.980026,132.260986 
	C193.554932,127.239540 186.129837,122.218094 178.247925,116.728416 
	C175.583008,112.581047 172.863907,109.107887 171.279480,105.177345 
	C168.492813,98.264267 166.399918,91.071510 164.016495,83.995880 
	C163.699280,80.895081 162.927170,77.748795 163.231049,74.710106 
	C163.421249,72.807999 165.231110,71.067863 166.933426,69.412529 
	C169.424210,71.986870 172.062637,74.139587 173.005341,76.876404 
	C174.879501,82.317459 175.956848,88.052208 177.111481,93.716965 
	C178.510361,100.580055 179.766968,107.438026 186.255341,112.129829 
	C192.536545,117.569084 198.467438,122.940140 204.814865,127.763000 
	C206.946854,129.382919 210.094223,129.817703 212.860001,130.406876 
	C215.296631,130.925934 218.457382,129.597778 218.787415,133.562531 
	C213.164459,133.665482 208.014725,133.664520 202.710693,133.475662 
	C202.030914,132.945496 201.505478,132.603241 200.980026,132.260986 
z"/>
<path fill="#EDD159" opacity="1.000000" stroke="none" 
	d="
M319.432434,116.237473 
	C319.520447,116.530266 319.562592,116.829521 319.503113,117.768875 
	C319.817657,119.721695 320.188049,121.040878 320.558411,122.360062 
	C320.566345,122.639481 320.566803,122.918900 320.424500,123.739380 
	C320.673462,125.557030 321.057770,126.833641 321.442078,128.110245 
	C321.497101,128.540863 321.552155,128.971481 321.478363,129.964813 
	C321.610779,131.360535 321.872040,132.193527 322.133301,133.026520 
	C322.186676,133.406509 322.240112,133.786499 322.203674,134.785492 
	C322.114258,135.633789 322.114655,135.863098 322.115021,136.092392 
	C322.396179,137.845184 322.677368,139.597977 322.517578,141.592270 
	C317.047455,140.191162 312.018341,138.548553 306.567657,136.835678 
	C303.120026,137.160416 300.093994,137.555405 297.054321,137.515503 
	C296.337341,128.400558 295.633942,119.720505 295.334778,111.029327 
	C297.527588,110.749428 299.316223,110.480637 301.544861,110.164398 
	C304.915955,110.001862 307.847046,109.886772 311.109192,109.846008 
	C312.289581,109.675720 313.138947,109.431114 313.988312,109.186501 
	C314.416992,109.253334 314.845673,109.320183 315.850830,109.538292 
	C316.998505,109.742889 317.569702,109.796219 318.140930,109.849548 
	C318.140930,109.849548 318.381287,110.206833 318.340576,110.810608 
	C318.677399,113.022072 319.054932,114.629768 319.432434,116.237473 
z"/>
<path fill="#DD5346" opacity="1.000000" stroke="none" 
	d="
M186.067795,111.847427 
	C179.766968,107.438026 178.510361,100.580055 177.111481,93.716965 
	C175.956848,88.052208 174.879501,82.317459 173.005341,76.876404 
	C172.062637,74.139587 169.424210,71.986870 167.298599,69.370140 
	C170.113495,68.888000 173.182434,68.605736 176.517548,68.649643 
	C176.370834,73.442619 180.240204,74.036308 182.849564,74.468307 
	C186.403931,75.056770 186.578873,71.642227 186.916840,69.011589 
	C190.779709,69.958305 194.642563,70.905022 198.811737,72.517509 
	C197.921921,80.264137 196.725800,87.344994 195.412170,94.706345 
	C192.219040,100.607033 189.143417,106.227226 186.067795,111.847427 
M179.596283,88.273888 
	C179.392303,88.707596 178.891510,89.335747 179.029068,89.545738 
	C180.975571,92.517250 190.491837,93.021271 192.531876,90.246414 
	C192.673813,90.053345 191.966110,89.235657 191.922729,88.057747 
	C191.515472,87.031113 191.303207,85.279007 190.666061,85.107750 
	C188.335175,84.481247 185.862274,84.385185 183.443787,84.081955 
	C180.490341,83.711670 179.595505,85.108032 179.596283,88.273888 
z"/>
<path fill="#E8AE74" opacity="1.000000" stroke="none" 
	d="
M95.393433,229.061554 
	C94.766869,227.718658 94.498062,226.308792 94.139542,224.554321 
	C111.586044,212.379684 129.122269,200.549637 147.065628,188.315094 
	C147.849503,187.918076 148.226212,187.925537 148.891998,188.181656 
	C150.406036,192.172165 151.630997,195.914017 152.855957,199.655869 
	C136.253662,208.370956 119.661583,217.105652 103.037460,225.778900 
	C100.688774,227.004257 98.183823,227.930115 95.393433,229.061554 
z"/>
<path fill="#E3AD72" opacity="1.000000" stroke="none" 
	d="
M186.922348,68.630539 
	C186.578873,71.642227 186.403931,75.056770 182.849564,74.468307 
	C180.240204,74.036308 176.370834,73.442619 176.929062,68.722244 
	C181.619965,63.464043 182.226624,59.902931 179.081940,55.041115 
	C178.912781,53.895294 178.907211,53.432060 179.038025,52.646408 
	C181.870316,48.240726 184.566208,44.157463 187.576431,40.044800 
	C189.957520,40.380840 192.024292,40.746288 194.323883,41.352409 
	C198.970871,42.967304 200.553711,46.280148 200.620361,50.567978 
	C200.653061,52.672352 200.540710,54.778973 200.494019,56.884579 
	C199.105530,62.904835 196.841034,67.766800 189.120117,66.120003 
	C188.565964,66.001808 187.666672,67.501854 186.922348,68.630539 
z"/>
<path fill="#E6AC74" opacity="1.000000" stroke="none" 
	d="
M195.529678,94.425858 
	C196.725800,87.344994 197.921921,80.264137 199.132965,72.750244 
	C200.664932,77.103127 203.519012,81.907440 203.453476,86.671585 
	C203.239273,102.239677 210.701096,113.236092 221.993179,122.729088 
	C226.356155,126.396950 230.178986,130.357071 236.493088,130.216614 
	C237.687668,130.190033 238.921356,131.919968 239.719681,133.296051 
	C234.814255,133.717667 230.326126,133.682632 225.788498,133.334152 
	C224.931076,132.254456 224.229706,131.312439 223.299240,130.748337 
	C209.621262,122.455620 198.495712,112.214432 195.914871,95.343689 
	C195.866211,95.025551 195.661560,94.731270 195.529678,94.425858 
z"/>
<path fill="#F8EFEF" opacity="1.000000" stroke="none" 
	d="
M325.830994,102.263908 
	C320.784882,100.122070 317.216522,96.924568 317.624481,90.851265 
	C317.657166,90.364349 317.500641,89.865990 317.443756,89.371597 
	C315.529053,72.729530 313.814484,77.241302 329.273438,75.526459 
	C330.433289,75.397789 332.675751,77.306328 332.982147,78.605713 
	C334.044037,83.109116 335.368622,87.867760 334.841644,92.322060 
	C334.462372,95.528000 331.293091,98.403870 328.776550,101.634735 
	C327.400116,101.982964 326.615570,102.123436 325.830994,102.263908 
M331.640259,89.360764 
	C332.106689,86.968575 331.404114,85.254128 328.726074,85.988739 
	C327.929626,86.207207 327.628998,88.233025 327.101166,89.430710 
	C328.501038,89.632843 329.900909,89.834976 331.640259,89.360764 
z"/>
<path fill="#F8EFEF" opacity="1.000000" stroke="none" 
	d="
M245.573853,84.217148 
	C248.306412,85.873466 250.553543,87.727135 253.128006,88.781563 
	C260.882446,91.957611 262.887421,97.930206 261.819031,105.623108 
	C250.756744,111.484634 243.968811,102.701546 236.057648,97.768204 
	C235.484070,97.410530 235.007050,96.425880 234.996689,95.725151 
	C234.964767,93.570732 242.947876,84.625824 245.573853,84.217148 
M242.924805,99.513947 
	C244.434845,98.683716 246.090500,98.029121 247.393356,96.948990 
	C248.042847,96.410553 248.046570,95.093178 248.342392,94.128143 
	C247.262711,93.887024 246.103500,93.273460 245.120148,93.483452 
	C243.162506,93.901512 241.301575,94.772415 239.220062,95.521210 
	C240.477982,96.930031 241.444855,98.012886 242.924805,99.513947 
M252.457031,93.767426 
	C252.579178,93.343895 252.718307,92.923805 252.805573,92.493217 
	C252.819000,92.426949 252.593903,92.312355 252.479141,92.220100 
	C252.378159,92.651543 252.277191,93.082977 252.457031,93.767426 
M250.504364,93.454865 
	C250.504364,93.454865 250.526367,93.507011 250.504364,93.454865 
z"/>
<path fill="#EDE9EA" opacity="1.000000" stroke="none" 
	d="
M148.602936,187.932983 
	C148.226212,187.925537 147.849503,187.918076 147.208832,188.016083 
	C138.703064,188.744736 133.527023,183.544815 128.210190,178.023102 
	C136.853561,174.018250 145.613144,170.117142 155.817795,173.957367 
	C156.183624,174.552155 156.189926,174.969223 156.157166,176.084381 
	C155.972961,182.089844 152.509674,185.160858 148.602936,187.932983 
z"/>
<path fill="#2B3238" opacity="1.000000" stroke="none" 
	d="
M187.262100,40.074203 
	C184.566208,44.157463 181.870316,48.240726 178.789001,52.753227 
	C177.593246,52.916531 176.782913,52.650600 176.005814,51.947495 
	C176.536880,48.218422 177.034698,44.926517 177.532501,41.634613 
	C177.159195,41.412411 176.785873,41.190212 176.412552,40.968010 
	C174.926758,42.338982 173.507706,43.792461 171.939194,45.061188 
	C169.699814,46.872581 167.350967,48.548668 165.048889,50.282543 
	C162.071701,49.106136 159.094528,47.929726 156.062958,46.366859 
	C156.008591,45.980408 156.097488,45.883831 156.097488,45.883831 
	C160.868042,46.448963 164.059906,44.439941 165.996735,40.069614 
	C166.798233,38.261139 167.877640,36.536743 169.058304,34.942722 
	C172.613388,30.143000 176.371048,30.040949 180.784698,34.126820 
	C182.202957,35.439766 184.286819,36.033710 186.441925,37.356464 
	C186.965820,38.528954 187.113968,39.301579 187.262100,40.074203 
z"/>
<path fill="#F0D776" opacity="1.000000" stroke="none" 
	d="
M294.930542,111.040436 
	C295.633942,119.720505 296.337341,128.400558 296.691498,137.682922 
	C292.957611,138.824997 289.572998,139.364777 286.197083,139.498199 
	C288.356445,132.814911 286.571930,127.253319 283.115784,121.610413 
	C283.548798,119.565918 283.964478,117.909752 284.380157,116.253586 
	C286.825256,115.032089 289.270355,113.810593 292.183472,112.233803 
	C293.028992,111.498238 293.406433,111.117966 294.075836,110.793449 
	C294.555359,110.912956 294.742981,110.976692 294.930542,111.040436 
z"/>
<path fill="#DD5346" opacity="1.000000" stroke="none" 
	d="
M163.931992,84.398178 
	C166.399918,91.071510 168.492813,98.264267 171.279480,105.177345 
	C172.863907,109.107887 175.583008,112.581047 177.961746,116.552498 
	C170.835190,115.278137 163.537994,113.711464 157.157379,112.341576 
	C159.526352,102.589241 161.686920,93.694862 163.931992,84.398178 
z"/>
<path fill="#B2AFB0" opacity="1.000000" stroke="none" 
	d="
M225.838013,133.647598 
	C230.326126,133.682632 234.814255,133.717667 239.772583,133.657227 
	C241.901749,133.643799 243.560684,133.725876 245.625854,133.891281 
	C245.739258,135.186279 245.446426,136.397934 244.633926,137.906158 
	C243.393158,138.185318 242.672089,138.167908 241.489746,138.083023 
	C231.345871,138.054184 221.663269,138.092834 211.980652,138.131470 
	C208.388138,139.382401 204.795624,140.633331 200.675186,141.652161 
	C199.786224,141.229111 199.425186,141.038162 199.064148,140.847214 
	C198.735046,140.482727 198.372864,140.142670 198.082703,139.749451 
	C196.975815,138.249405 195.892151,136.732224 194.799805,135.221451 
	C196.570511,134.690216 198.341232,134.158981 200.848373,133.648331 
	C202.011536,133.667130 202.438278,133.665344 202.865005,133.663574 
	C208.014725,133.664520 213.164459,133.665482 219.196411,133.638916 
	C221.998428,133.623459 223.918213,133.635529 225.838013,133.647598 
z"/>
<path fill="#BA6E61" opacity="1.000000" stroke="none" 
	d="
M283.098511,121.998749 
	C286.571930,127.253319 288.356445,132.814911 285.808899,139.634766 
	C281.233429,141.622787 274.370331,139.855408 275.897552,148.128418 
	C274.851746,148.196915 273.805939,148.265411 272.378967,148.232819 
	C274.665619,139.016022 277.333466,129.900299 280.004578,120.374603 
	C280.180542,119.915688 280.353210,119.866753 280.914185,120.088219 
	C281.901154,120.905334 282.499847,121.452042 283.098511,121.998749 
z"/>
<path fill="#1E2629" opacity="1.000000" stroke="none" 
	d="
M306.989258,136.905930 
	C312.018341,138.548553 317.047455,140.191162 322.421875,141.830597 
	C322.855957,142.789734 322.944702,143.752045 323.102692,145.204803 
	C321.518768,146.786011 319.960480,148.580170 318.192413,148.818558 
	C314.696808,149.289871 311.085144,148.900681 307.237762,148.301727 
	C306.965759,144.126099 306.977509,140.516022 306.989258,136.905930 
z"/>
<path fill="#E8C862" opacity="1.000000" stroke="none" 
	d="
M175.972565,52.384666 
	C176.782913,52.650600 177.593246,52.916531 178.652618,53.075645 
	C178.907211,53.432060 178.912781,53.895294 178.910263,54.705326 
	C175.412964,59.284058 170.806396,59.912109 165.108688,59.295910 
	C165.223083,56.886135 165.328598,54.663403 166.108856,52.162315 
	C169.846573,52.050865 172.909576,52.217766 175.972565,52.384666 
z"/>
<path fill="#C58357" opacity="1.000000" stroke="none" 
	d="
M295.334778,111.029327 
	C294.742981,110.976692 294.555359,110.912956 294.090149,110.592468 
	C293.812500,110.335732 293.894867,109.941338 293.894897,109.941345 
	C294.135834,108.611580 294.689758,107.251450 294.564209,105.957245 
	C293.981079,99.947227 299.057465,95.826309 304.238495,98.942528 
	C307.985870,101.196487 310.651062,105.249634 313.893616,108.843460 
	C313.138947,109.431114 312.289581,109.675720 311.202271,109.501373 
	C309.293915,106.740631 307.963928,103.998390 305.838531,102.191971 
	C304.314972,100.897064 301.713165,100.403336 299.620789,100.468201 
	C298.746002,100.495316 296.989258,103.213272 297.301849,104.152626 
	C298.033325,106.350792 299.773254,108.213371 301.104828,110.211838 
	C299.316223,110.480637 297.527588,110.749428 295.334778,111.029327 
z"/>
<path fill="#363C40" opacity="1.000000" stroke="none" 
	d="
M200.716965,56.660751 
	C200.540710,54.778973 200.653061,52.672352 200.620361,50.567978 
	C200.553711,46.280148 198.970871,42.967304 194.679962,41.265633 
	C196.776566,37.426060 199.748459,39.365051 202.398468,39.546852 
	C206.570908,47.200222 206.240829,51.022507 200.716965,56.660751 
z"/>
<path fill="#6D1A34" opacity="1.000000" stroke="none" 
	d="
M176.005814,51.947495 
	C172.909576,52.217766 169.846573,52.050865 166.386490,51.862534 
	C165.752975,51.449135 165.516541,51.057163 165.164505,50.473866 
	C167.350967,48.548668 169.699814,46.872581 171.939194,45.061188 
	C173.507706,43.792461 174.926758,42.338982 176.412552,40.968010 
	C176.785873,41.190212 177.159195,41.412411 177.532501,41.634613 
	C177.034698,44.926517 176.536880,48.218422 176.005814,51.947495 
z"/>
<path fill="#E0D9DB" opacity="1.000000" stroke="none" 
	d="
M202.396729,39.574814 
	C199.748459,39.365051 196.776566,37.426060 194.447144,41.024956 
	C192.024292,40.746288 189.957520,40.380840 187.576431,40.044800 
	C187.113968,39.301579 186.965820,38.528954 186.825867,37.358955 
	C192.281143,35.774651 197.332199,36.720940 202.196152,39.612480 
	C202.400467,39.449375 202.429031,39.563995 202.429031,39.563995 
	C202.429031,39.563995 202.395004,39.602776 202.396729,39.574814 
z"/>
<path fill="#B17C8B" opacity="1.000000" stroke="none" 
	d="
M325.909241,102.668747 
	C326.615570,102.123436 327.400116,101.982964 328.584595,101.912460 
	C327.844055,108.849510 326.776794,115.744476 321.361053,120.980537 
	C321.016998,120.195198 321.012634,119.542442 321.008240,118.889679 
	C322.667999,113.617645 324.327759,108.345612 325.909241,102.668747 
z"/>
<path fill="#7F243F" opacity="1.000000" stroke="none" 
	d="
M283.115784,121.610413 
	C282.499847,121.452042 281.901154,120.905334 281.182922,120.071350 
	C280.242889,118.527855 279.647644,117.014313 278.560516,116.062698 
	C275.013123,112.957512 275.180084,110.039482 278.429199,108.437462 
	C280.249603,111.000664 281.971008,113.424446 284.036255,116.050903 
	C283.964478,117.909752 283.548798,119.565918 283.115784,121.610413 
z"/>
<path fill="#E28B71" opacity="1.000000" stroke="none" 
	d="
M254.948273,130.970581 
	C251.559998,130.876205 251.910110,129.040649 252.820389,126.710014 
	C253.113251,125.960205 252.742630,124.951263 252.395172,124.053970 
	C253.814392,123.669136 255.513977,123.291199 257.603455,122.933273 
	C256.873474,125.177040 255.753632,127.400803 254.804642,130.081665 
	C254.975494,130.538742 254.948273,130.970581 254.948273,130.970581 
z"/>
<path fill="#7F243F" opacity="1.000000" stroke="none" 
	d="
M293.585236,109.793724 
	C293.894867,109.941338 293.812500,110.335732 293.798218,110.536713 
	C293.406433,111.117966 293.028992,111.498238 292.396057,111.965576 
	C290.474976,110.829391 288.809418,109.606133 287.143829,108.382874 
	C287.382080,108.003311 287.620361,107.623756 287.858612,107.244194 
	C289.664276,108.044830 291.469940,108.845474 293.585236,109.793724 
z"/>
<path fill="#C58357" opacity="1.000000" stroke="none" 
	d="
M319.546814,115.919571 
	C319.054932,114.629768 318.677399,113.022072 318.414307,111.012901 
	C318.906250,112.274841 319.283752,113.938263 319.546814,115.919571 
z"/>
<path fill="#C58357" opacity="1.000000" stroke="none" 
	d="
M321.549622,127.776657 
	C321.057770,126.833641 320.673462,125.557030 320.409607,123.948441 
	C320.905731,124.891998 321.281464,126.167534 321.549622,127.776657 
z"/>
<path fill="#C58357" opacity="1.000000" stroke="none" 
	d="
M322.282379,132.789200 
	C321.872040,132.193527 321.610779,131.360535 321.495728,130.290436 
	C321.905121,130.886169 322.168304,131.719040 322.282379,132.789200 
z"/>
<path fill="#C58357" opacity="1.000000" stroke="none" 
	d="
M320.747375,118.692345 
	C321.012634,119.542442 321.016998,120.195198 321.067352,121.175354 
	C321.086731,121.745049 320.998901,121.962631 320.704102,122.257774 
	C320.188049,121.040878 319.817657,119.721695 319.503052,117.996140 
	C319.868011,117.891518 320.177246,118.193260 320.747375,118.692345 
z"/>
<path fill="#7C1F3A" opacity="1.000000" stroke="none" 
	d="
M202.710693,133.475647 
	C202.438278,133.665344 202.011536,133.667130 201.274734,133.595520 
	C200.949341,133.241852 200.947861,132.961487 200.970108,132.471008 
	C201.505478,132.603241 202.030914,132.945496 202.710693,133.475647 
z"/>
<path fill="#7C1F3A" opacity="1.000000" stroke="none" 
	d="
M199.048279,141.201431 
	C199.425186,141.038162 199.786224,141.229111 200.334412,141.670609 
	C200.209991,142.198517 199.898438,142.475891 199.293976,142.863037 
	C199.011520,142.500427 199.021957,142.028046 199.048279,141.201431 
z"/>
<path fill="#C58357" opacity="1.000000" stroke="none" 
	d="
M317.945068,109.598236 
	C317.569702,109.796219 316.998505,109.742889 316.177246,109.545784 
	C316.534515,109.383644 317.141876,109.365280 317.945068,109.598236 
z"/>
<path fill="#363C40" opacity="1.000000" stroke="none" 
	d="
M202.561829,39.598274 
	C202.429031,39.563995 202.400467,39.449375 202.456207,39.438286 
	C202.511948,39.427197 202.854645,39.495327 202.854645,39.495327 
	C202.854645,39.495327 202.694626,39.632557 202.561829,39.598274 
z"/>
<path fill="#2B3238" opacity="1.000000" stroke="none" 
	d="
M155.961487,46.026100 
	C155.914368,46.071796 155.587265,45.732643 155.587265,45.732643 
	C155.587265,45.732643 155.957260,45.682331 156.027374,45.783081 
	C156.097488,45.883831 156.008591,45.980408 155.961487,46.026100 
z"/>
<path fill="#C58357" opacity="1.000000" stroke="none" 
	d="
M322.270996,135.961609 
	C322.114655,135.863098 322.114258,135.633789 322.209351,135.073334 
	C322.406525,134.983429 322.536896,135.217957 322.595886,135.469223 
	C322.619781,135.570938 322.487946,135.709198 322.270996,135.961609 
z"/>
<path fill="#7F243F" opacity="1.000000" stroke="none" 
	d="
M278.825500,119.536385 
	C278.933868,119.607796 278.492645,119.743454 278.262878,119.723160 
	C278.214539,119.477051 278.442535,119.397751 278.825500,119.536385 
z"/>
<path fill="#79243E" opacity="1.000000" stroke="none" 
	d="
M303.904358,162.308914 
	C306.553162,168.376877 309.201965,174.444855 311.879913,181.042511 
	C311.353882,182.176102 310.798676,182.779999 310.243469,183.383896 
	C307.352600,183.976791 305.760254,185.578247 305.233307,188.642822 
	C305.075500,189.560440 303.110565,190.167313 301.592896,190.785812 
	C301.742493,187.888046 300.632874,187.149155 297.515564,187.910629 
	C295.759216,185.476608 294.602844,183.283173 293.446472,181.089752 
	C288.861176,175.647690 286.136108,169.996048 290.849762,163.130234 
	C291.487762,162.200958 291.115326,160.577988 291.813202,159.331390 
	C294.897827,160.230194 297.380005,161.073822 299.862183,161.917435 
	C300.955627,162.178772 302.049072,162.440109 303.532227,162.539276 
	C303.921936,162.377121 303.904358,162.308914 303.904358,162.308914 
M306.403198,180.030304 
	C306.157074,178.160080 305.910980,176.289856 305.508514,173.231476 
	C303.159302,174.893021 301.709137,175.918686 300.258972,176.944351 
	C301.433105,177.916183 302.555939,178.961914 303.803528,179.827942 
	C304.405731,180.245972 305.242615,180.325989 306.403198,180.030304 
M298.003571,174.293991 
	C297.597168,175.037033 297.190735,175.780075 296.784332,176.523117 
	C297.187958,176.682770 297.591614,176.842422 297.995239,177.002060 
	C298.218170,176.109695 298.441071,175.217331 298.003571,174.293991 
z"/>
<path fill="#2B3238" opacity="1.000000" stroke="none" 
	d="
M306.567688,136.835678 
	C306.977509,140.516022 306.965759,144.126099 306.887512,148.064148 
	C306.336548,148.491196 305.852112,148.590302 305.183716,148.854980 
	C303.293732,148.847397 301.587738,148.674225 299.305298,148.331802 
	C298.407227,148.050903 298.151276,148.136429 297.961060,148.419128 
	C293.978241,148.428360 289.995422,148.437607 285.391724,148.290344 
	C284.432220,148.040588 284.159363,148.135925 283.952271,148.419861 
	C281.494354,148.397919 279.036469,148.375977 276.238037,148.241241 
	C274.370331,139.855408 281.233429,141.622787 285.800171,140.041107 
	C289.572998,139.364777 292.957611,138.824997 296.705078,138.117813 
	C300.093994,137.555405 303.120026,137.160416 306.567688,136.835678 
z"/>
<path fill="#791937" opacity="1.000000" stroke="none" 
	d="
M212.247162,138.355835 
	C221.663269,138.092834 231.345871,138.054184 241.301483,138.278061 
	C240.067184,139.663513 238.559891,140.786469 236.993027,141.833038 
	C236.933456,141.756638 236.652267,141.787872 236.652267,141.787872 
	C236.652267,141.787872 236.904236,142.055679 237.225800,142.281677 
	C239.131836,142.693558 240.716309,142.879456 242.300781,143.065353 
	C242.173996,143.531784 242.047211,143.998215 241.633728,144.914307 
	C241.199600,145.549835 241.086502,145.754654 241.007721,145.978439 
	C241.007721,145.978439 241.015625,146.006500 240.803116,146.177643 
	C240.376221,146.816162 240.161835,147.283524 239.866028,147.905121 
	C239.784622,148.059357 239.780060,148.408112 239.780060,148.408112 
	C235.521545,148.440521 231.263031,148.472931 226.552307,148.512970 
	C226.514755,145.279083 225.209732,143.428864 221.976089,142.447739 
	C218.729660,141.462738 215.660507,139.893433 212.247162,138.355835 
M229.775009,145.693115 
	C230.063538,145.222961 230.352081,144.752808 230.640610,144.282654 
	C230.291290,144.112823 229.941986,143.942978 229.592651,143.773148 
	C229.484299,144.398148 229.375946,145.023148 229.775009,145.693115 
M233.180267,143.513596 
	C233.353363,143.615570 233.526459,143.717529 233.699539,143.819504 
	C233.732239,143.692566 233.823441,143.477707 233.787552,143.453827 
	C233.626770,143.346817 233.429794,143.294174 233.180267,143.513596 
z"/>
<path fill="#E98C81" opacity="1.000000" stroke="none" 
	d="
M260.010620,162.907501 
	C252.341278,162.870422 252.341278,162.870422 252.642700,153.000076 
	C256.508606,153.000076 260.412598,153.006989 264.316498,152.998016 
	C267.773956,152.990067 267.192841,155.613556 267.121216,157.608505 
	C267.047333,159.665756 268.241302,162.629150 264.450073,162.855942 
	C263.130249,162.934921 261.803253,162.893829 260.010620,162.907501 
z"/>
<path fill="#9C5C57" opacity="1.000000" stroke="none" 
	d="
M267.012390,183.452850 
	C267.068726,186.055176 267.068726,188.209045 267.068726,190.777771 
	C263.056976,190.777771 259.176727,190.777771 254.969376,190.777771 
	C254.734894,187.748871 254.510757,184.853439 254.178299,180.558807 
	C258.997498,181.481171 262.976746,182.242783 267.012390,183.452850 
z"/>
<path fill="#E98F85" opacity="1.000000" stroke="none" 
	d="
M265.258423,174.296112 
	C262.646118,179.339600 258.294830,176.941162 255.216278,176.308289 
	C253.887985,176.035233 253.523193,171.075226 252.539932,167.606689 
	C257.841309,167.606689 262.042114,167.606689 266.787903,167.606689 
	C266.261383,169.820969 265.779388,171.848038 265.258423,174.296112 
z"/>
<path fill="#E98C81" opacity="1.000000" stroke="none" 
	d="
M247.868042,156.257538 
	C247.907883,158.499588 247.907883,160.295319 247.907883,162.850571 
	C243.584747,161.830643 238.659988,165.727707 235.852783,160.497467 
	C234.970596,158.853821 236.219040,154.738159 237.847870,153.381470 
	C240.396057,151.259094 246.567352,153.323746 247.868042,156.257538 
z"/>
<path fill="#E98F85" opacity="1.000000" stroke="none" 
	d="
M244.761902,167.214935 
	C250.705536,167.079437 248.636673,171.371567 249.053421,174.032898 
	C249.532639,177.093201 247.156921,176.875504 245.130035,176.954742 
	C237.212585,177.264282 236.668091,176.678864 237.242737,167.594055 
	C239.543152,167.470016 241.929733,167.341339 244.761902,167.214935 
z"/>
<path fill="#953B4E" opacity="1.000000" stroke="none" 
	d="
M231.742157,170.799713 
	C231.977020,172.665588 232.189163,174.115906 232.396896,175.535950 
	C223.021179,178.524521 221.639816,177.557404 221.039520,166.716385 
	C224.504242,169.175934 229.768860,163.073486 231.742157,170.799713 
z"/>
<path fill="#9C5C57" opacity="1.000000" stroke="none" 
	d="
M249.871429,183.719223 
	C249.993195,186.272476 250.089874,188.398041 250.247864,191.870956 
	C246.160339,191.014771 242.494690,190.750916 239.427795,189.257477 
	C238.640869,188.874298 239.743179,184.611420 239.977554,182.130920 
	C243.272736,182.470261 246.965622,179.427917 249.871429,183.719223 
z"/>
<path fill="#975356" opacity="1.000000" stroke="none" 
	d="
M243.309143,204.955597 
	C241.734192,202.303452 240.612762,199.664795 239.171280,196.273071 
	C243.582825,196.273071 246.777039,196.273071 250.656281,196.273071 
	C250.893417,198.784988 251.149124,201.493576 251.477234,204.969086 
	C248.615616,204.969086 246.189133,204.969086 243.309143,204.955597 
z"/>
<path fill="#363C40" opacity="1.000000" stroke="none" 
	d="
M293.011993,181.174042 
	C294.602844,183.283173 295.759216,185.476608 297.106323,187.971710 
	C296.174652,189.251907 295.182739,190.775848 293.899628,191.082932 
	C291.906067,191.560043 289.714294,191.208984 287.042419,191.208984 
	C287.221222,187.813293 287.372803,184.934448 287.544769,181.668320 
	C289.405334,181.516739 290.991455,181.387527 293.011993,181.174042 
z"/>
<path fill="#31383C" opacity="1.000000" stroke="none" 
	d="
M289.125366,195.818878 
	C291.725006,195.808884 293.838867,195.808884 296.407440,195.808884 
	C296.168488,198.975784 295.965454,201.666229 295.744751,204.591187 
	C292.624725,204.591187 289.901428,204.591187 285.844269,204.591187 
	C286.878906,201.348007 287.759277,198.588440 289.125366,195.818878 
z"/>
<path fill="#363C40" opacity="1.000000" stroke="none" 
	d="
M276.051941,153.191772 
	C278.659882,153.191772 281.267822,153.191772 284.268860,153.191772 
	C284.122528,156.468948 283.992554,159.380310 283.834564,162.919022 
	C281.590271,162.919022 279.657990,162.919022 277.153137,162.497040 
	C276.404358,159.113953 276.228149,156.152863 276.051941,153.191772 
z"/>
<path fill="#7F243F" opacity="1.000000" stroke="none" 
	d="
M227.532684,197.592728 
	C233.248520,193.349945 235.713654,195.186554 236.622910,204.442841 
	C234.248871,204.442841 231.916901,204.442841 229.162598,204.442841 
	C228.680511,202.397141 228.161667,200.195541 227.532684,197.592728 
z"/>
<path fill="#7F243F" opacity="1.000000" stroke="none" 
	d="
M221.350464,162.822144 
	C222.160980,159.683563 223.439636,156.611252 224.901413,153.215286 
	C226.546570,152.958084 228.008621,153.024536 229.982422,153.114258 
	C230.423065,156.143433 230.859879,159.146271 231.404236,162.888397 
	C227.909973,162.888397 224.864288,162.888397 221.350464,162.822144 
z"/>
<path fill="#31383C" opacity="1.000000" stroke="none" 
	d="
M277.031921,167.403397 
	C278.987488,167.403397 280.943054,167.403397 283.189362,167.403397 
	C283.189362,170.515015 283.189362,173.491470 283.189362,176.918259 
	C281.125946,176.918259 279.517548,176.918259 277.441589,176.419861 
	C276.993317,173.082092 277.012634,170.242752 277.031921,167.403397 
z"/>
<path fill="#975356" opacity="1.000000" stroke="none" 
	d="
M255.997467,202.007889 
	C255.795944,200.226486 255.594406,198.445099 255.398224,196.710999 
	C263.699707,194.382004 266.897247,195.364227 266.597778,200.603699 
	C262.708008,201.370285 259.352722,201.689087 255.997467,202.007889 
z"/>
<path fill="#363C40" opacity="1.000000" stroke="none" 
	d="
M277.124939,181.523376 
	C278.905151,181.523376 280.685364,181.523376 282.639832,181.523376 
	C282.639832,184.758652 282.639832,187.670776 282.639832,191.145264 
	C280.903870,191.145264 279.470551,191.145264 277.578857,190.627441 
	C277.121979,187.247543 277.123474,184.385452 277.124939,181.523376 
z"/>
<path fill="#31383C" opacity="1.000000" stroke="none" 
	d="
M304.295837,162.483429 
	C303.904358,162.308914 303.921936,162.377121 303.940186,162.409058 
	C304.174225,159.531433 304.390015,156.621841 304.793732,153.344559 
	C306.459564,152.976852 307.937500,152.976852 309.364655,152.976852 
	C311.098236,160.015274 309.689117,162.838943 304.295837,162.483429 
z"/>
<path fill="#9C5C57" opacity="1.000000" stroke="none" 
	d="
M234.066193,184.818649 
	C234.348221,186.723740 234.630249,188.628845 234.969376,190.919708 
	C230.765274,190.769653 226.005234,193.475388 225.466431,186.328583 
	C228.607178,185.533447 231.336700,185.176041 234.066193,184.818649 
z"/>
<path fill="#3D3F44" opacity="1.000000" stroke="none" 
	d="
M299.851379,161.470306 
	C297.380005,161.073822 294.897827,160.230194 292.169586,159.126160 
	C291.720520,158.272537 291.245270,157.218018 291.354431,157.153610 
	C294.026245,155.576614 296.760132,154.104813 300.292572,152.170898 
	C300.105682,155.830719 299.973114,158.426956 299.851379,161.470306 
z"/>
<path fill="#AB756F" opacity="1.000000" stroke="none" 
	d="
M276.620148,167.313889 
	C277.012634,170.242752 276.993317,173.082092 277.018982,176.348328 
	C275.599152,176.775192 274.134338,176.775192 272.739441,176.775192 
	C270.742096,169.315323 271.382507,167.632904 276.620148,167.313889 
z"/>
<path fill="#AB756F" opacity="1.000000" stroke="none" 
	d="
M276.714050,181.437302 
	C277.123474,184.385452 277.121979,187.247543 277.160522,190.550751 
	C275.609131,190.991882 274.017731,190.991882 272.525299,190.991882 
	C271.019043,182.513870 271.341553,181.744064 276.714050,181.437302 
z"/>
<path fill="#79243E" opacity="1.000000" stroke="none" 
	d="
M278.015625,204.657516 
	C276.232208,204.657516 274.448792,204.657516 272.442749,204.657516 
	C270.449646,199.780350 273.809296,197.822281 277.531097,196.367508 
	C277.937927,199.468369 277.976776,202.062943 278.015625,204.657516 
z"/>
<path fill="#E98F85" opacity="1.000000" stroke="none" 
	d="
M234.085831,184.429855 
	C231.336700,185.176041 228.607178,185.533447 225.473175,185.927765 
	C224.656860,184.598648 224.245071,183.232590 223.517868,180.820251 
	C227.542343,182.454300 231.949188,178.407669 234.085831,184.429855 
z"/>
<path fill="#BA6E61" opacity="1.000000" stroke="none" 
	d="
M275.625732,153.118118 
	C276.228149,156.152863 276.404358,159.113953 276.703979,162.435577 
	C275.377167,162.796112 273.927002,162.796112 271.364319,162.796112 
	C273.795532,159.317352 268.044678,154.296463 275.625732,153.118118 
z"/>
<path fill="#791937" opacity="1.000000" stroke="none" 
	d="
M255.923492,202.429443 
	C259.352722,201.689087 262.708008,201.370285 266.487000,201.043991 
	C267.672577,203.711472 266.885773,205.460846 263.904419,204.765686 
	C261.221222,204.140060 257.648834,207.065552 255.923492,202.429443 
z"/>
<path fill="#363C40" opacity="1.000000" stroke="none" 
	d="
M278.434998,204.734802 
	C277.976776,202.062943 277.937927,199.468369 277.902222,196.436157 
	C279.179596,195.998520 280.453857,195.998520 282.490814,195.998520 
	C280.645752,199.030411 285.436157,203.813812 278.434998,204.734802 
z"/>
<path fill="#3D3F44" opacity="1.000000" stroke="none" 
	d="
M300.973755,196.453339 
	C302.062073,196.508820 303.986298,197.250076 303.948944,197.367538 
	C303.160400,199.846985 305.532288,203.624878 300.789062,204.657532 
	C300.407227,204.050507 300.383667,203.449951 300.540466,202.351074 
	C300.682037,201.522491 300.643250,201.192230 300.604431,200.861954 
	C300.701660,199.524170 300.798889,198.186386 300.973755,196.453339 
z"/>
<path fill="#ACA8A8" opacity="1.000000" stroke="none" 
	d="
M300.417114,201.052856 
	C300.643250,201.192230 300.682037,201.522491 300.555237,202.049850 
	C300.336334,201.912537 300.283051,201.578140 300.417114,201.052856 
z"/>
<path fill="#E48A80" opacity="1.000000" stroke="none" 
	d="
M240.025009,148.498001 
	C239.780060,148.408112 239.784622,148.059357 240.069992,147.916016 
	C240.355362,147.772675 240.763779,147.756989 240.763779,147.756989 
	C240.763779,147.756989 241.009125,148.013016 241.132141,148.141312 
	C240.926743,148.375702 240.598343,148.481796 240.025009,148.498001 
z"/>
<path fill="#E48A80" opacity="1.000000" stroke="none" 
	d="
M298.115906,148.560623 
	C298.151276,148.136429 298.407227,148.050903 298.874878,148.320129 
	C299.020874,148.477707 298.687256,148.728394 298.687256,148.728394 
	C298.687256,148.728394 298.270721,148.702118 298.115906,148.560623 
z"/>
<path fill="#E48A80" opacity="1.000000" stroke="none" 
	d="
M284.134308,148.560104 
	C284.159363,148.135925 284.432220,148.040588 284.950775,148.273224 
	C284.926697,148.699341 284.655243,148.795273 284.134308,148.560104 
z"/>
<path fill="#BE8F5F" opacity="1.000000" stroke="none" 
	d="
M148.891998,188.181641 
	C152.509674,185.160858 155.972961,182.089844 156.205139,176.393707 
	C159.510254,180.301849 162.728317,184.598785 166.030380,189.208435 
	C161.903900,192.828308 157.693451,196.135468 153.169479,199.549255 
	C151.630997,195.914017 150.406036,192.172165 148.891998,188.181641 
z"/>
<path fill="#EDE9EA" opacity="1.000000" stroke="none" 
	d="
M176.861359,177.472626 
	C181.625122,179.353775 186.435120,181.602051 191.583557,183.918427 
	C191.419174,189.971252 186.803329,188.882675 182.582092,189.191162 
	C180.416885,185.415604 178.662247,181.627701 176.861359,177.472626 
z"/>
<path fill="#2B3238" opacity="1.000000" stroke="none" 
	d="
M313.905640,161.585876 
	C313.978333,159.674301 314.210693,158.192047 314.291748,156.701584 
	C314.467529,153.468719 315.924866,152.172836 319.123474,153.320831 
	C320.071198,161.057114 318.678772,163.413925 313.905640,161.585876 
z"/>
<path fill="#31383C" opacity="1.000000" stroke="none" 
	d="
M315.954224,167.340607 
	C316.218567,170.127579 316.243927,172.849380 315.822876,175.500259 
	C315.730408,176.082397 314.065277,176.674026 313.094574,176.728271 
	C312.712158,176.749634 311.714569,175.119217 311.912537,174.572281 
	C312.839600,172.010727 310.463684,167.709641 315.954224,167.340607 
z"/>
<path fill="#31383C" opacity="1.000000" stroke="none" 
	d="
M310.254089,183.877930 
	C310.798676,182.779999 311.353882,182.176102 312.054962,181.367126 
	C312.963348,182.230850 314.468964,183.400070 314.340790,184.348511 
	C314.030182,186.647034 312.958771,188.842758 312.193970,191.079910 
	C311.430084,190.493729 310.110382,189.986420 310.013794,189.305542 
	C309.786652,187.705109 310.143921,186.021774 310.254089,183.877930 
z"/>
<path fill="#953B4E" opacity="1.000000" stroke="none" 
	d="
M321.204041,170.334686 
	C321.975281,168.951248 322.681763,167.952209 323.388275,166.953171 
	C323.972443,167.222275 324.556610,167.491394 325.140778,167.760498 
	C324.350128,170.878769 323.559509,173.997040 322.768890,177.115311 
	C322.023682,176.968201 321.278503,176.821091 320.533325,176.673981 
	C320.735321,174.689011 320.937317,172.704056 321.204041,170.334686 
z"/>
<path fill="#3D3F44" opacity="1.000000" stroke="none" 
	d="
M318.388031,186.552246 
	C319.053131,184.490875 319.654236,182.826752 320.255341,181.162613 
	C320.943909,181.398315 321.632446,181.634033 322.321014,181.869736 
	C321.699860,185.027069 321.078735,188.184402 320.457611,191.341721 
	C319.746429,191.264282 319.035248,191.186844 318.324066,191.109390 
	C318.324066,189.722748 318.324066,188.336121 318.388031,186.552246 
z"/>
<path fill="#31383C" opacity="1.000000" stroke="none" 
	d="
M308.060089,200.928772 
	C308.869080,198.856415 309.615265,197.194778 310.361481,195.533142 
	C311.048248,195.818802 311.735046,196.104477 312.421844,196.390152 
	C311.694397,199.249603 310.966949,202.109055 310.239532,204.968506 
	C309.642181,204.901230 309.044861,204.833954 308.447510,204.766678 
	C308.297455,203.624283 308.147400,202.481888 308.060089,200.928772 
z"/>
<path fill="#F8E1DF" opacity="1.000000" stroke="none" 
	d="
M196.817062,167.189362 
	C193.464981,163.711258 195.022949,161.300644 198.414536,160.336792 
	C199.911697,159.911301 201.999420,161.563919 203.819046,162.273102 
	C202.869537,163.946167 202.175064,165.874878 200.862686,167.184250 
	C200.208664,167.836761 198.423264,167.355301 196.817062,167.189362 
z"/>
<path fill="#F8E1DF" opacity="1.000000" stroke="none" 
	d="
M202.501938,146.407532 
	C204.589935,147.368515 206.315582,148.465591 208.041229,149.562653 
	C206.862213,150.985199 205.906342,153.187759 204.440369,153.607117 
	C203.023300,154.012497 201.080688,152.580811 199.368927,151.956070 
	C200.292480,150.151932 201.216034,148.347794 202.501938,146.407532 
z"/>
<path fill="#F8E1DF" opacity="1.000000" stroke="none" 
	d="
M204.217712,158.570679 
	C199.607727,157.580505 195.395935,156.704132 191.184158,155.827759 
	C191.341660,155.166992 191.499161,154.506241 191.656662,153.845474 
	C198.337555,154.806396 204.975098,155.970032 211.491196,157.701660 
	C211.365082,158.397064 211.238953,159.092484 211.112823,159.787903 
	C208.947189,159.420090 206.781555,159.052277 204.217712,158.570679 
z"/>
<path fill="#E39F5C" opacity="1.000000" stroke="none" 
	d="
M255.263290,131.204956 
	C254.948273,130.970581 254.975494,130.538742 254.985748,130.323730 
	C262.298340,130.735306 268.042847,127.601021 272.857269,122.221260 
	C271.110016,128.866180 263.347229,132.780792 255.263290,131.204956 
z"/>
<path fill="#7C1F3A" opacity="1.000000" stroke="none" 
	d="
M242.522797,142.858521 
	C240.716309,142.879456 239.131836,142.693558 237.265808,142.248047 
	C236.984222,141.988434 237.052597,141.909424 237.052597,141.909424 
	C238.559891,140.786469 240.067184,139.663513 241.762756,138.345535 
	C242.672089,138.167908 243.393158,138.185318 244.473022,138.248840 
	C244.136124,139.747192 243.440475,141.199448 242.522797,142.858521 
z"/>
<path fill="#7C1F3A" opacity="1.000000" stroke="none" 
	d="
M240.826965,147.469299 
	C240.763779,147.756989 240.355362,147.772675 240.151398,147.761780 
	C240.161835,147.283524 240.376221,146.816162 240.788757,146.180145 
	C240.954651,146.401535 240.922409,146.791565 240.826965,147.469299 
z"/>
<path fill="#7C1F3A" opacity="1.000000" stroke="none" 
	d="
M241.172089,145.885803 
	C241.086502,145.754654 241.199600,145.549835 241.466660,145.236542 
	C241.621323,145.380341 241.538040,145.608368 241.172089,145.885803 
z"/>
<path fill="#7D1E37" opacity="1.000000" stroke="none" 
	d="
M225.788498,133.334152 
	C223.918213,133.635529 221.998428,133.623459 219.669632,133.535004 
	C218.457382,129.597778 215.296631,130.925934 212.860001,130.406876 
	C210.094223,129.817703 206.946854,129.382919 204.814865,127.763000 
	C198.467438,122.940140 192.536545,117.569084 186.255341,112.129822 
	C189.143417,106.227226 192.219040,100.607033 195.412170,94.706345 
	C195.661560,94.731270 195.866211,95.025551 195.914871,95.343689 
	C198.495712,112.214432 209.621262,122.455620 223.299240,130.748337 
	C224.229706,131.312439 224.931076,132.254456 225.788498,133.334152 
z"/>
<path fill="#791937" opacity="1.000000" stroke="none" 
	d="
M301.544861,110.164398 
	C299.773254,108.213371 298.033325,106.350792 297.301849,104.152626 
	C296.989258,103.213272 298.746002,100.495316 299.620789,100.468201 
	C301.713165,100.403336 304.314972,100.897064 305.838531,102.191971 
	C307.963928,103.998390 309.293915,106.740631 310.871216,109.427048 
	C307.847046,109.886772 304.915955,110.001862 301.544861,110.164398 
z"/>
<path fill="#7F243F" opacity="1.000000" stroke="none" 
	d="
M180.222015,87.819618 
	C179.595505,85.108032 180.490341,83.711670 183.443787,84.081955 
	C185.862274,84.385185 188.335175,84.481247 190.666061,85.107750 
	C191.303207,85.279007 191.515472,87.031113 191.402359,88.423973 
	C187.328659,88.466667 183.775345,88.143143 180.222015,87.819618 
z"/>
<path fill="#F8EFEF" opacity="1.000000" stroke="none" 
	d="
M179.909149,88.046753 
	C183.775345,88.143143 187.328659,88.466667 191.267761,88.749313 
	C191.966110,89.235657 192.673813,90.053345 192.531876,90.246414 
	C190.491837,93.021271 180.975571,92.517250 179.029068,89.545738 
	C178.891510,89.335747 179.392303,88.707596 179.909149,88.046753 
z"/>
<path fill="#E98F85" opacity="1.000000" stroke="none" 
	d="
M331.470520,89.698944 
	C329.900909,89.834976 328.501038,89.632843 327.101166,89.430710 
	C327.628998,88.233025 327.929626,86.207207 328.726074,85.988739 
	C331.404114,85.254128 332.106689,86.968575 331.470520,89.698944 
M328.647034,87.823509 
	C328.911957,88.127319 329.176849,88.431122 329.441772,88.734924 
	C329.546539,88.611526 329.761230,88.407204 329.739166,88.377213 
	C329.507812,88.062958 329.238495,87.776611 328.647034,87.823509 
z"/>
<path fill="#EDE9EA" opacity="1.000000" stroke="none" 
	d="
M242.668274,99.304848 
	C241.444855,98.012886 240.477982,96.930031 239.220062,95.521210 
	C241.301575,94.772415 243.162506,93.901512 245.120148,93.483452 
	C246.103500,93.273460 247.262711,93.887024 248.342392,94.128143 
	C248.046570,95.093178 248.042847,96.410553 247.393356,96.948990 
	C246.090500,98.029121 244.434845,98.683716 242.668274,99.304848 
z"/>
<path fill="#EDE9EA" opacity="1.000000" stroke="none" 
	d="
M252.316620,93.640915 
	C252.277191,93.082977 252.378159,92.651543 252.479126,92.220108 
	C252.593903,92.312355 252.819000,92.426949 252.805573,92.493217 
	C252.718307,92.923805 252.579178,93.343895 252.316620,93.640915 
z"/>
<path fill="#EDE9EA" opacity="1.000000" stroke="none" 
	d="
M250.515366,93.480942 
	C250.526367,93.507011 250.504364,93.454865 250.515366,93.480942 
z"/>
<path fill="#975356" opacity="1.000000" stroke="none" 
	d="
M306.188232,180.294678 
	C305.242615,180.325989 304.405731,180.245972 303.803528,179.827942 
	C302.555939,178.961914 301.433105,177.916183 300.258972,176.944351 
	C301.709137,175.918686 303.159302,174.893021 305.508514,173.231476 
	C305.910980,176.289856 306.157074,178.160080 306.188232,180.294678 
z"/>
<path fill="#B2AFB0" opacity="1.000000" stroke="none" 
	d="
M298.333801,174.309479 
	C298.441071,175.217331 298.218170,176.109695 297.995239,177.002060 
	C297.591614,176.842422 297.187958,176.682770 296.784332,176.523117 
	C297.190735,175.780075 297.597168,175.037033 298.333801,174.309479 
z"/>
<path fill="#7C1F3A" opacity="1.000000" stroke="none" 
	d="
M229.521301,145.670624 
	C229.375946,145.023148 229.484299,144.398148 229.592651,143.773148 
	C229.941986,143.942978 230.291290,144.112823 230.640610,144.282654 
	C230.352081,144.752808 230.063538,145.222961 229.521301,145.670624 
z"/>
<path fill="#7C1F3A" opacity="1.000000" stroke="none" 
	d="
M233.213074,143.367752 
	C233.429794,143.294174 233.626770,143.346817 233.787552,143.453827 
	C233.823441,143.477707 233.732239,143.692566 233.699554,143.819504 
	C233.526459,143.717529 233.353363,143.615570 233.213074,143.367752 
z"/>
<path fill="#7C1F3A" opacity="1.000000" stroke="none" 
	d="
M236.944229,142.022064 
	C236.904236,142.055679 236.652267,141.787872 236.652267,141.787872 
	C236.652267,141.787872 236.933456,141.756638 236.993027,141.833038 
	C237.052597,141.909424 236.984222,141.988434 236.944229,142.022064 
z"/>
<path fill="#F8E1DF" opacity="1.000000" stroke="none" 
	d="
M328.813354,87.653030 
	C329.238495,87.776611 329.507812,88.062958 329.739166,88.377213 
	C329.761230,88.407204 329.546539,88.611526 329.441772,88.734924 
	C329.176849,88.431122 328.911957,88.127319 328.813354,87.653030 
z"/>
</svg>